<?xml version="1.0" encoding="UTF-8" standalone="no"?>
<!DOCTYPE svg PUBLIC "-//W3C//DTD SVG 1.1//EN" "http://www.w3.org/Graphics/SVG/1.1/DTD/svg11.dtd">
<!-- Created with Vectornator (http://vectornator.io/) -->
<svg height="100%" stroke-miterlimit="10" style="fill-rule:nonzero;clip-rule:evenodd;stroke-linecap:round;stroke-linejoin:round;" version="1.1" viewBox="0 0 1024 1024" width="100%" xml:space="preserve" xmlns="http://www.w3.org/2000/svg" xmlns:xlink="http://www.w3.org/1999/xlink">
<defs/>
<g id="Untitled">
<g opacity="1">
<path d="M512 0L512 0C794.77 0 1024 229.23 1024 512L1024 512C1024 794.77 794.77 1024 512 1024L512 1024C229.23 1024 2.84217e-14 794.77 2.84217e-14 512L2.84217e-14 512C2.84217e-14 229.23 229.23 0 512 0Z" fill="#ff476b" fill-rule="nonzero" opacity="1" stroke="none"/>
<path d="M754.242 293.912L751.721 293.912C635.433 293.912 555.776 388.11 478.734 478.712C411.968 557.206 349.366 631.341 273.774 632.99C230.498 632.848 190.582 609.635 169.058 572.085C147.541 534.535 147.69 488.358 169.45 450.95C191.202 413.542 231.269 390.578 274.543 390.72C298.81 392.065 322.253 399.967 342.384 413.588C351.591 419.497 360.426 425.972 368.835 432.968C382.233 443.946 400.47 446.941 416.675 440.823C432.878 434.706 444.593 420.409 447.398 403.32C450.203 386.224 443.673 368.94 430.275 357.962C418.777 348.478 406.704 339.71 394.13 331.7C359.52 308.791 319.314 295.757 277.843 294.001L269.116 294.001L269.122 294.001C191.222 294.231 119.36 335.993 80.6016 403.569C41.8471 471.147 42.0842 554.264 81.2303 621.612C120.376 688.96 192.476 730.315 270.374 730.087L277.837 730.087C395.673 726.017 478.921 628.238 552.865 541.03C618.664 463.501 680.882 390.436 752.894 390.436L755.314 390.436C798.597 390.436 838.58 413.521 860.218 451.004C881.863 488.48 881.863 534.656 860.218 572.139C838.58 609.615 798.597 632.706 755.314 632.706C730.512 632.26 706.299 625.095 685.249 611.968C676.928 607.047 668.904 601.646 661.218 595.785C647.367 585.395 629.034 583.185 613.115 589.985C597.189 596.785 586.111 611.563 584.041 628.752C581.966 645.935 589.226 662.922 603.069 673.305C613.344 681.518 624.092 689.116 635.246 696.079C671.154 717.852 712.261 729.567 754.253 730C832.153 730 904.13 688.44 943.085 620.978C982.035 553.517 982.035 470.397 943.085 402.935C904.135 335.474 832.157 293.914 754.253 293.914L754.242 293.912Z" fill="#ffffff" fill-rule="nonzero" opacity="1" stroke="none"/>
</g>
</g>
</svg>
