<?xml version="1.0" encoding="UTF-8" standalone="no"?>
<!DOCTYPE svg PUBLIC "-//W3C//DTD SVG 1.1//EN" "http://www.w3.org/Graphics/SVG/1.1/DTD/svg11.dtd">
<!-- Created with Vectornator (http://vectornator.io/) -->
<svg height="100%" stroke-miterlimit="10" style="fill-rule:nonzero;clip-rule:evenodd;stroke-linecap:round;stroke-linejoin:round;" version="1.1" viewBox="0 0 2088 428" width="100%" xml:space="preserve" xmlns="http://www.w3.org/2000/svg" xmlns:xlink="http://www.w3.org/1999/xlink">
<defs/>
<g id="Color">
<g opacity="1">
<g opacity="1">
<path d="M567.749 358.008C545.919 358.008 521.294 355.874 493.873 351.607L493.873 302.805C525.952 307.605 550.578 310.005 567.749 310.005C591.443 310.005 603.289 297.338 603.289 272.003C603.289 264.936 601.592 258.236 598.198 251.902C594.804 245.568 590.045 241.201 583.922 238.801C580.062 237.335 574.737 236.135 567.949 235.201C561.16 234.268 554.205 232.901 547.084 231.101C539.962 229.301 533.14 226.467 526.618 222.6C501.593 207.666 489.081 184.065 489.081 151.797C489.081 128.729 496.435 109.328 511.144 93.5936C525.853 77.8594 544.721 69.9923 567.749 69.9923C585.719 69.9923 610.344 71.659 641.625 74.9926L641.625 123.195C609.279 119.728 584.654 117.995 567.749 117.995C562.691 117.995 558.265 119.128 554.471 121.395C550.678 123.662 547.782 126.595 545.786 130.196C543.789 133.796 542.358 137.463 541.493 141.196C540.628 144.93 540.195 148.596 540.195 152.197C540.195 167.931 545.52 178.198 556.168 182.998C559.629 184.598 567.516 186.365 579.829 188.299C592.141 190.232 602.091 193.199 609.679 197.199C620.327 202.666 629.113 209.733 636.034 218.4C642.956 227.067 647.748 235.801 650.41 244.602C653.073 253.402 654.404 262.536 654.404 272.003C654.404 297.871 646.417 318.672 630.444 334.406C614.471 350.141 593.572 358.008 567.749 358.008Z" fill="#552bff" fill-rule="nonzero" opacity="1" stroke="none"/>
<path d="M763.421 354.808L763.421 223.601L714.303 223.601L714.303 175.598L814.535 175.598L814.535 354.808L763.421 354.808ZM750.642 84.5931C757.298 77.926 765.817 74.5925 776.199 74.5925C786.582 74.5925 795.068 77.8927 801.657 84.4931C808.246 91.0934 811.54 99.5939 811.54 109.994C811.54 120.395 808.246 128.895 801.657 135.496C795.068 142.096 786.582 145.396 776.199 145.396C765.817 145.396 757.331 142.096 750.742 135.496C744.153 128.895 740.859 120.395 740.859 109.994C740.859 99.5939 744.12 91.1268 750.642 84.5931Z" fill="#552bff" fill-rule="nonzero" opacity="1" stroke="none"/>
<path d="M958.494 146.796C973.935 146.796 985.049 152.197 991.838 162.997L993.435 162.997L993.435 73.1925L1044.55 73.1925L1044.55 354.808L993.435 354.808L993.435 341.807L991.838 341.807C985.049 352.607 973.935 358.008 958.494 358.008C948.377 358.008 939.426 353.841 931.639 345.507C923.852 337.173 918.161 325.539 914.567 310.605C911.772 298.605 910.374 279.203 910.374 252.402C910.374 225.601 911.772 206.2 914.567 194.199C918.161 179.265 923.852 167.631 931.639 159.297C939.426 150.963 948.377 146.796 958.494 146.796ZM986.247 200.999C983.851 196.866 980.923 194.799 977.462 194.799C974.001 194.799 971.073 196.832 968.677 200.899C966.281 204.966 964.55 210.066 963.485 216.2C962.154 223.401 961.489 235.468 961.489 252.402C961.489 269.336 962.154 281.404 963.485 288.604C964.55 294.738 966.281 299.838 968.677 303.905C971.073 307.972 974.001 310.005 977.462 310.005C980.923 310.005 983.851 307.972 986.247 303.905C988.643 299.838 990.374 294.738 991.439 288.604C992.77 281.404 993.435 269.336 993.435 252.402C993.435 235.468 992.77 223.401 991.439 216.2C990.374 210.066 988.643 205 986.247 200.999Z" fill="#552bff" fill-rule="nonzero" opacity="1" stroke="none"/>
<path d="M1185.11 146.796C1200.55 146.796 1213.73 150.563 1224.65 158.097C1235.56 165.631 1243.35 175.265 1248.01 186.999C1250.27 192.732 1251.97 199.466 1253.1 207.2C1254.23 214.933 1254.9 221.767 1255.1 227.701C1255.3 233.634 1255.4 241.868 1255.4 252.402L1255.4 276.403L1166.15 276.403C1166.15 287.337 1167.14 295.004 1169.14 299.405C1172.6 306.472 1179.26 310.005 1189.11 310.005C1203.62 310.005 1223.58 308.672 1249.01 306.005L1249.01 353.807C1224.78 356.608 1204.81 358.008 1189.11 358.008C1172.6 358.008 1158.69 354.141 1147.38 346.407C1136.06 338.673 1127.88 328.606 1122.82 316.205C1119.36 307.805 1117.16 298.805 1116.23 289.204C1115.3 279.604 1114.83 267.336 1114.83 252.402C1114.83 237.068 1115.26 224.434 1116.13 214.5C1116.99 204.566 1119.02 195.399 1122.22 186.999C1126.61 175.131 1134.3 165.464 1145.28 157.997C1156.26 150.53 1169.54 146.796 1185.11 146.796ZM1185.11 194.799C1182.85 194.799 1180.79 195.032 1178.92 195.499C1177.06 195.966 1175.5 196.832 1174.23 198.099C1172.97 199.366 1171.87 200.499 1170.94 201.499C1170.01 202.499 1169.24 204.166 1168.64 206.5C1168.04 208.833 1167.58 210.666 1167.24 212C1166.91 213.333 1166.64 215.567 1166.45 218.7C1166.25 221.834 1166.15 224.034 1166.15 225.301C1166.15 226.567 1166.08 228.934 1165.95 232.401L1204.28 232.401C1204.02 218.667 1202.95 209.6 1201.09 205.2C1198.42 198.266 1193.1 194.799 1185.11 194.799Z" fill="#552bff" fill-rule="nonzero" opacity="1" stroke="none"/>
<path d="M1376.79 354.808L1325.68 354.808L1325.68 73.1925L1376.79 73.1925L1376.79 215.4L1410.14 149.997L1465.24 149.997L1419.92 238.601L1474.63 354.808L1419.52 354.808L1386.18 284.204L1376.79 303.805L1376.79 354.808Z" fill="#552bff" fill-rule="nonzero" opacity="1" stroke="none"/>
<path d="M1581.25 354.808L1581.25 223.601L1532.13 223.601L1532.13 175.598L1632.36 175.598L1632.36 354.808L1581.25 354.808ZM1568.47 84.5931C1575.13 77.926 1583.65 74.5925 1594.03 74.5925C1604.41 74.5925 1612.9 77.8927 1619.49 84.4931C1626.07 91.0934 1629.37 99.5939 1629.37 109.994C1629.37 120.395 1626.07 128.895 1619.49 135.496C1612.9 142.096 1604.41 145.396 1594.03 145.396C1583.65 145.396 1575.16 142.096 1568.57 135.496C1561.98 128.895 1558.69 120.395 1558.69 109.994C1558.69 99.5939 1561.95 91.1268 1568.47 84.5931Z" fill="#552bff" fill-rule="nonzero" opacity="1" stroke="none"/>
<path d="M1729.6 289.204C1728.67 279.604 1728.2 267.336 1728.2 252.402C1728.2 237.468 1728.7 225.201 1729.7 215.6C1730.7 206 1733.06 196.999 1736.79 188.599C1748.9 160.73 1771.46 146.796 1804.48 146.796C1819.52 146.796 1838.15 147.996 1860.38 150.397L1860.38 198.399C1837.89 195.999 1819.25 194.799 1804.48 194.799C1798.75 194.799 1794.23 196.332 1790.9 199.399C1787.57 202.466 1784.84 207.133 1782.71 213.4C1780.45 220.334 1779.32 233.334 1779.32 252.402C1779.32 271.47 1780.45 284.47 1782.71 291.404C1784.84 297.671 1787.57 302.338 1790.9 305.405C1794.23 308.472 1798.75 310.005 1804.48 310.005C1820.05 310.005 1839.35 308.272 1862.38 304.805L1862.38 352.807C1839.48 356.274 1820.18 358.008 1804.48 358.008C1771.46 358.008 1748.9 344.074 1736.79 316.205C1733.06 307.805 1730.67 298.805 1729.6 289.204Z" fill="#552bff" fill-rule="nonzero" opacity="1" stroke="none"/>
<path d="M1990.16 354.808L1939.05 354.808L1939.05 73.1925L1990.16 73.1925L1990.16 215.4L2023.51 149.997L2078.62 149.997L2033.29 238.601L2088 354.808L2032.89 354.808L1999.55 284.204L1990.16 303.805L1990.16 354.808Z" fill="#552bff" fill-rule="nonzero" opacity="1" stroke="none"/>
</g>
</g>
<g opacity="1">
<path d="M214.619 0L214.619 0C333.15 0 429.238 95.8111 429.238 214L429.238 214C429.238 332.189 333.15 428 214.619 428L214.619 428C96.0882 428 1.19137e-14 332.189 1.19137e-14 214L1.19137e-14 214C1.19137e-14 95.8111 96.0882 0 214.619 0Z" fill="#ff476b" fill-rule="nonzero" opacity="1" stroke="none"/>
<path d="M316.162 122.846L315.105 122.846C266.359 122.846 232.969 162.218 200.675 200.087C172.688 232.895 146.446 263.881 114.76 264.57C96.6195 264.511 79.8877 254.808 70.8653 239.114C61.8459 223.419 61.9083 204.118 71.0297 188.483C80.1478 172.848 96.9427 163.249 115.082 163.309C125.255 163.871 135.081 167.174 143.52 172.867C147.379 175.336 151.083 178.043 154.607 180.967C160.223 185.556 167.868 186.807 174.661 184.25C181.453 181.693 186.363 175.718 187.539 168.575C188.715 161.43 185.978 154.205 180.362 149.617C175.542 145.653 170.481 141.988 165.211 138.64C150.703 129.065 133.849 123.617 116.465 122.883L112.807 122.883L112.81 122.883C80.1561 122.979 50.0329 140.435 33.7864 168.679C17.5414 196.925 17.6407 231.665 34.0499 259.814C50.4589 287.964 80.6815 305.249 113.335 305.153L116.463 305.153C165.858 303.453 200.753 262.584 231.749 226.133C259.33 193.729 285.411 163.19 315.596 163.19L316.611 163.19C334.754 163.19 351.514 172.839 360.584 188.505C369.658 204.169 369.658 223.47 360.584 239.136C351.514 254.8 334.754 264.451 316.611 264.451C306.214 264.265 296.065 261.27 287.241 255.784C283.753 253.727 280.39 251.469 277.168 249.02C271.362 244.677 263.677 243.753 257.004 246.595C250.328 249.438 245.684 255.614 244.817 262.799C243.947 269.981 246.99 277.081 252.793 281.421C257.1 284.853 261.605 288.029 266.281 290.939C281.333 300.04 298.564 304.936 316.166 305.117C348.82 305.117 378.991 287.747 395.32 259.55C411.647 231.353 411.647 196.611 395.32 168.414C378.993 140.217 348.821 122.847 316.166 122.847L316.162 122.846Z" fill="#ffffff" fill-rule="nonzero" opacity="1" stroke="none"/>
</g>
</g>
</svg>
